<svg xmlns="http://www.w3.org/2000/svg" viewBox="0 0 1000 1000">
    <g fill="#40ffac">
        <path d="M 193.00,107.24
           C 182.76,109.33 173.42,113.06 166.30,121.04
             141.77,148.52 159.78,192.50 197.00,193.96
             235.12,195.45 255.47,150.79 231.53,122.01
             227.69,117.40 223.32,114.42 218.00,111.76
             212.51,109.02 206.16,107.28 200.00,107.24
             197.36,106.94 195.59,107.11 193.00,107.24 Z
           M 766.00,140.42
           C 750.90,142.61 740.61,145.21 729.00,156.09
             703.77,179.75 704.22,220.74 730.00,243.83
             740.54,253.27 754.04,257.82 768.00,258.82
             773.96,259.24 784.27,256.94 790.00,255.00
             796.66,252.74 802.65,249.27 808.00,244.70
             843.32,214.53 831.50,156.80 787.00,143.02
             781.15,141.21 772.06,139.74 766.00,140.42 Z
           M 874.00,153.29
           C 849.18,161.26 855.12,194.96 878.00,195.96
             881.95,196.13 885.41,195.80 889.00,194.00
             908.98,184.00 902.65,153.99 881.00,153.29
             878.23,152.92 876.70,153.09 874.00,153.29 Z
           M 107.00,185.74
           C 94.70,192.32 99.48,209.21 113.00,207.89
             122.54,206.96 126.40,194.85 119.77,188.23
             116.10,184.55 111.71,184.60 107.00,185.74 Z
           M 827.00,412.42
           C 807.19,415.42 789.73,422.33 776.30,438.00
             741.15,479.00 755.85,542.53 807.00,561.94
             814.68,564.85 824.78,566.90 833.00,567.00
             844.71,567.13 856.35,564.68 867.00,559.82
             875.42,555.98 884.59,549.74 890.91,543.00
             919.13,512.91 918.89,464.57 889.96,435.01
             881.18,426.05 868.95,419.09 857.00,415.35
             848.19,412.58 836.18,411.30 827.00,412.42 Z
           M 151.00,442.42
           C 135.90,444.61 125.61,447.21 114.00,458.09
             88.77,481.75 89.22,522.74 115.00,545.83
             125.54,555.27 139.04,559.82 153.00,560.82
             158.96,561.24 169.27,558.94 175.00,557.00
             181.66,554.74 187.65,551.27 193.00,546.70
             228.32,516.53 216.50,458.80 172.00,445.02
             166.15,443.21 157.06,441.74 151.00,442.42 Z
           M 258.00,478.66
           C 247.89,482.37 250.84,492.88 258.00,494.34
             268.83,496.54 272.18,478.03 258.00,478.66 Z
           M 930.00,547.74
           C 917.70,554.32 922.48,571.21 936.00,569.89
             945.54,568.96 949.40,556.85 942.77,550.23
             939.10,546.55 934.71,546.60 930.00,547.74 Z
           M 330.00,583.44
           C 304.56,588.14 285.58,602.13 276.70,627.00
             265.26,659.05 279.45,694.19 310.00,709.24
             317.94,713.16 327.10,715.89 336.00,716.00
             348.25,716.14 356.74,715.18 368.00,709.74
             377.03,705.38 383.92,700.85 390.38,693.00
             420.96,655.86 405.22,598.81 358.00,585.43
             349.00,582.88 339.28,582.25 330.00,583.44 Z
           M 826.00,749.22
           C 782.92,756.48 748.82,781.13 733.59,823.00
             729.77,833.49 727.02,844.80 727.00,856.00
             726.97,876.61 727.43,887.35 735.45,907.00
             748.45,938.85 776.22,962.49 809.00,972.00
             815.67,973.93 825.09,975.92 832.00,976.00
             856.44,976.28 872.91,974.66 895.00,962.69
             908.68,955.28 919.71,946.06 929.54,934.00
             937.54,924.18 943.99,911.94 948.14,900.00
             950.94,891.93 953.90,879.49 954.00,871.00
             954.24,850.07 953.62,836.76 945.13,817.00
             931.79,785.95 905.33,762.81 873.00,753.29
             865.99,751.23 856.27,749.09 849.00,749.22
             849.00,749.22 826.00,749.22 826.00,749.22 Z
           M 340.00,796.53
           C 312.37,804.77 317.83,844.33 345.00,844.99
             352.66,845.17 359.19,843.64 364.67,837.82
             378.76,822.86 369.11,796.53 348.00,796.01
             344.91,795.94 343.05,796.03 340.00,796.53 Z" />
        <path d="M520.5 78.1z"/>
    </g>
</svg>
